<svg id="Layer_1" data-name="Layer 1" xmlns="http://www.w3.org/2000/svg" viewBox="0 0 25 25"><defs><style>.cls-1{fill:#e9e9ea;}.cls-2{fill:#c4c4c4;}</style></defs><polygon class="cls-1" points="19.88 16.18 13 12.21 13 4.27 12 4.27 12 12.21 5.12 16.18 5.62 17.05 12.5 13.08 19.38 17.05 19.88 16.18"/><path class="cls-2" d="M20.13,7.52,13,3.41l-.5-.29-.5.29L4.87,7.52l-.5.29v9.38l.5.29L12,21.59l.5.29.5-.29,7.13-4.11.5-.29V7.81ZM12.5,4.27,19.13,8.1,12.5,11.92,5.87,8.1ZM5.37,8.39Zm0,8.22V9L12,12.79v7.65ZM13,20.44V12.79L19.63,9v7.65Z"/></svg>