<svg id="Layer_1" data-name="Layer 1" xmlns="http://www.w3.org/2000/svg" viewBox="0 0 25 25"><defs><style>.cls-1{fill:#e9e9ea;}.cls-2{fill:#c4c4c4;}</style></defs><path class="cls-1" d="M19.07,17.5h-1c0-1.18-2.29-2.5-5.57-2.5s-5.57,1.32-5.57,2.5h-1c0-2,2.89-3.5,6.57-3.5S19.07,15.54,19.07,17.5Z"/><path class="cls-2" d="M12.5,4C8.82,4,5.93,5.54,5.93,7.5v10c0,2,2.89,3.5,6.57,3.5s6.57-1.54,6.57-3.5V7.5C19.07,5.54,16.18,4,12.5,4Zm0,1c3.28,0,5.57,1.32,5.57,2.5S15.78,10,12.5,10,6.93,8.68,6.93,7.5,9.22,5,12.5,5Zm0,15c-3.28,0-5.57-1.32-5.57-2.5V9.38A8.88,8.88,0,0,0,12.5,11a8.88,8.88,0,0,0,5.57-1.62V17.5C18.07,18.68,15.78,20,12.5,20Z"/></svg>