<?xml version="1.0" encoding="utf-8"?>
<!-- Generator: Adobe Illustrator 25.4.1, SVG Export Plug-In . SVG Version: 6.00 Build 0)  -->
<svg version="1.1" id="Layer_1" xmlns="http://www.w3.org/2000/svg" xmlns:xlink="http://www.w3.org/1999/xlink" x="0px" y="0px"
	 viewBox="0 0 25 25" style="enable-background:new 0 0 25 25;" xml:space="preserve">
<style type="text/css">
	.st0{fill:#C4C4C4;}
	.st1{fill:none;stroke:#C4C4C4;stroke-miterlimit:10;}
	.st2{fill:#C4C4C4;stroke:#000000;stroke-miterlimit:10;}
	.st3{fill:#FFFFFF;}
</style>
<g>
	<path class="st0" d="M10.77,11.59l-0.75,0c0.15-4.95,1.54-7.68,2.48-7.68c1.04,0,2.5,3.23,2.5,8.5c0,0.66-0.02,1.29-0.07,1.88
		c0.35-0.03,0.69-0.08,1.01-0.12C15.98,13.59,16,13,16,12.41c0-4.61-1.23-9.5-3.5-9.5c-2.14,0-3.35,4.31-3.48,8.69l-0.74,0
		l1.26,2.15L10.77,11.59z"/>
	<path class="st0" d="M14.7,16.31c-0.48,2.91-1.45,4.6-2.2,4.6c-0.42,0-1.05-0.59-1.6-2.17l0.72-0.18l-1.74-1.78l-0.67,2.4L9.93,19
		c0.65,1.9,1.53,2.92,2.57,2.92c1.64,0,2.73-2.55,3.21-5.7C15.38,16.26,15.04,16.28,14.7,16.31z"/>
</g>
<g>
	<path class="st0" d="M10.62,9.99c0.34-0.02,0.7-0.04,1.06-0.05l0,0.75l2.16-1.24l-2.15-1.26l0,0.74c-0.32,0.01-0.63,0.03-0.95,0.05
		C10.7,9.3,10.65,9.63,10.62,9.99z"/>
	<path class="st0" d="M19.06,9.84l0.19-0.73l-2.4,0.67l1.78,1.74l0.18-0.72c1.34,0.47,2.19,1.08,2.19,1.61c0,1.04-3.23,2.5-8.5,2.5
		c-5.27,0-8.5-1.46-8.5-2.5c0-0.72,1.62-1.71,4.61-2.2C8.63,9.87,8.66,9.53,8.7,9.2C5.54,9.68,3,10.77,3,12.41
		c0,2.27,4.89,3.5,9.5,3.5s9.5-1.23,9.5-3.5C22,11.37,20.98,10.49,19.06,9.84z"/>
</g>
</svg>
