<svg version="1.1" id="Layer_1" xmlns="http://www.w3.org/2000/svg" viewBox="0 0 25 25">
<defs>
<style>
	.st1{fill:#C4C4C4;}
</style>
</defs>
<path class="st1" d="M12.5,16.5C10.6,16.5,9,14.9,9,13s1.6-3.5,3.5-3.5S16,11.1,16,13S14.4,16.5,12.5,16.5z M12.5,10.5
	c-1.4,0-2.5,1.1-2.5,2.5s1.1,2.5,2.5,2.5c1.4,0,2.5-1.1,2.5-2.5S13.9,10.5,12.5,10.5z"/>
<path class="st1" d="M18.5,19h-12C5.1,19,4,17.9,4,16.5V10c0-1.4,1.1-2.5,2.5-2.5h1.7c0.4,0,0.8-0.2,1.1-0.4l0.3-0.3
	C10,6.3,10.7,6,11.3,6h2.3c0.7,0,1.3,0.3,1.8,0.7l0.3,0.3c0.3,0.3,0.7,0.4,1.1,0.4h1.7c1.4,0,2.5,1.1,2.5,2.5v6.5
	C21,17.9,19.9,19,18.5,19z M6.5,8.5C5.7,8.5,5,9.2,5,10v6.5C5,17.3,5.7,18,6.5,18h12c0.8,0,1.5-0.7,1.5-1.5V10
	c0-0.8-0.7-1.5-1.5-1.5h-1.7c-0.7,0-1.3-0.3-1.8-0.7l-0.3-0.3C14.5,7.2,14.1,7,13.7,7h-2.3c-0.4,0-0.8,0.2-1.1,0.4L9.9,7.8
	C9.5,8.2,8.8,8.5,8.2,8.5H6.5z"/>
</svg>
