<svg id="Layer_1" data-name="Layer 1" xmlns="http://www.w3.org/2000/svg" viewBox="0 0 25 25"><defs><style>.cls-1{fill:#e9e9ea;}.cls-2{fill:#c4c4c4;}</style></defs><path class="cls-1" d="M15.74,9.26C15.27,6.37,14.17,4,12.5,4V5c.84,0,1.75,1.63,2.2,4.12A20,20,0,0,0,12.5,9C8.38,9,4,10.23,4,12.5H5C5,11.32,8.21,10,12.5,10a19.58,19.58,0,0,1,2.36.14A19.58,19.58,0,0,1,15,12.5c0,4.29-1.32,7.5-2.5,7.5v1c2.27,0,3.5-4.38,3.5-8.5a20,20,0,0,0-.12-2.2c2.49.45,4.12,1.36,4.12,2.2h1C21,10.83,18.63,9.73,15.74,9.26Z"/><path class="cls-2" d="M12.5,4A8.5,8.5,0,1,0,21,12.5,8.51,8.51,0,0,0,12.5,4ZM20,12.5c0,1.18-3.21,2.5-7.5,2.5a19.58,19.58,0,0,1-2.36-.14A19.58,19.58,0,0,1,10,12.5C10,8.21,11.32,5,12.5,5A7.5,7.5,0,0,1,20,12.5ZM10.61,5.25C9.56,6.84,9,9.73,9,12.5a20,20,0,0,0,.12,2.2C6.63,14.25,5,13.34,5,12.5A7.51,7.51,0,0,1,10.61,5.25ZM5.25,14.39a10.6,10.6,0,0,0,4,1.35,10.6,10.6,0,0,0,1.35,4A7.5,7.5,0,0,1,5.25,14.39ZM12.5,20c-.84,0-1.75-1.63-2.2-4.12a20,20,0,0,0,2.2.12c2.77,0,5.66-.56,7.25-1.61A7.51,7.51,0,0,1,12.5,20Z"/></svg>